<?xml version="1.0" standalone="no"?>
<!DOCTYPE svg PUBLIC "-//W3C//DTD SVG 20010904//EN"
 "http://www.w3.org/TR/2001/REC-SVG-20010904/DTD/svg10.dtd">
<svg version="1.0" xmlns="http://www.w3.org/2000/svg"
 width="1856.000000pt" height="1856.000000pt" viewBox="0 0 1856.000000 1856.000000"
 preserveAspectRatio="xMidYMid meet">

<g transform="translate(0.000000,1856.000000) scale(0.100000,-0.100000)"
fill="#000000" stroke="none">
<path d="M18325 18398 c-24 -101 -157 -574 -207 -738 -110 -365 -350 -993
-510 -1340 -67 -144 -309 -623 -378 -745 -278 -498 -539 -896 -903 -1377 -270
-358 -555 -687 -898 -1038 -657 -672 -1492 -1301 -2394 -1805 -249 -139 -712
-375 -883 -450 -195 -86 -676 -275 -713 -281 -21 -4 -46 -1 -60 7 -13 7 -80
67 -149 133 -243 234 -558 486 -855 683 -457 304 -875 518 -1381 709 -434 163
-803 256 -1304 328 -376 54 -479 61 -900 60 -384 0 -617 -13 -835 -45 -38 -6
-115 -17 -170 -25 -992 -149 -1949 -541 -2780 -1138 -367 -263 -680 -546 -964
-871 -288 -329 -476 -587 -665 -910 -32 -55 -73 -125 -91 -155 -43 -72 -179
-344 -222 -445 -227 -525 -338 -890 -444 -1455 -73 -396 -112 -988 -90 -1385
23 -414 60 -684 148 -1080 182 -821 498 -1545 981 -2245 484 -701 1119 -1296
1907 -1787 147 -92 418 -235 686 -361 290 -138 878 -331 1254 -412 464 -100
838 -141 1300 -140 467 0 776 33 1275 135 262 54 453 106 735 201 600 201
1296 567 1765 928 295 227 447 360 698 612 647 652 1129 1401 1448 2252 210
559 313 991 381 1597 23 202 26 930 5 1145 -66 681 -245 1384 -498 1957 -79
178 -79 172 -3 225 35 25 105 71 154 103 50 31 126 83 171 114 45 31 117 80
160 110 225 155 630 461 849 642 309 256 366 304 564 479 246 217 495 455 800
765 469 476 915 1026 1289 1586 90 135 292 456 292 465 0 2 21 36 47 76 141
221 470 868 598 1177 24 58 57 135 73 171 16 36 66 162 110 280 211 568 362
1094 456 1590 90 477 125 730 151 1095 17 233 31 675 23 675 -3 0 -14 -33 -23
-72z m-11050 -7149 c744 -74 1347 -267 1963 -631 246 -144 388 -258 460 -367
128 -193 160 -384 94 -557 -148 -391 -571 -952 -1128 -1494 -191 -185 -290
-275 -447 -403 -780 -639 -1616 -1053 -2466 -1223 -314 -62 -548 -84 -917 -84
-428 0 -763 43 -1214 155 -319 79 -536 154 -847 291 -21 9 -33 10 -33 4 0 -6
28 -52 62 -103 139 -208 309 -410 524 -623 98 -96 155 -161 160 -179 20 -79
-95 -474 -196 -675 -40 -79 -138 -237 -238 -383 -40 -59 -72 -111 -70 -116 4
-12 227 83 335 142 284 155 521 365 721 637 30 41 72 94 94 116 l40 41 126
-62 c70 -34 137 -65 150 -69 20 -7 22 -14 22 -69 0 -312 -201 -1047 -426
-1556 -8 -18 -13 -36 -10 -38 8 -8 147 72 222 128 179 133 299 249 435 419
184 231 303 417 519 813 79 144 118 169 207 132 43 -18 117 -77 139 -111 22
-33 30 -72 75 -388 71 -506 109 -961 109 -1324 0 -174 3 -223 13 -220 16 5
137 184 192 283 107 197 249 568 319 835 37 144 132 560 156 690 32 171 64
234 125 246 85 16 185 -53 232 -160 15 -33 70 -146 123 -251 272 -538 606
-1071 860 -1375 52 -63 104 -127 115 -142 11 -15 23 -28 27 -28 28 -1 14 378
-27 698 -21 166 -117 760 -171 1062 -31 174 -54 316 -54 339 0 32 73 99 117
107 19 4 47 1 66 -7 17 -7 95 -74 172 -149 201 -196 377 -332 740 -574 323
-215 575 -355 903 -499 212 -93 552 -208 552 -186 0 5 -89 107 -198 227 -375
412 -519 585 -804 962 -253 336 -419 568 -436 612 -18 46 -5 85 41 124 48 41
113 31 262 -38 224 -103 478 -185 890 -284 475 -115 985 -171 1313 -145 166
13 334 43 320 56 -2 3 -50 18 -106 35 -324 96 -754 317 -1152 592 -364 251
-420 291 -500 356 -96 77 -110 94 -94 120 18 29 71 59 116 66 24 3 93 0 153
-8 324 -43 643 -42 925 4 253 42 522 123 728 221 81 38 124 54 127 46 2 -7 11
-64 19 -127 55 -402 73 -714 57 -969 -39 -610 -173 -1194 -393 -1711 -271
-637 -614 -1146 -1103 -1635 -196 -196 -384 -354 -663 -557 -144 -104 -480
-303 -652 -385 -576 -277 -1096 -431 -1675 -497 -214 -25 -510 -39 -675 -33
-702 27 -1396 191 -1999 473 -51 24 -95 44 -98 44 -16 0 -352 189 -458 258
-841 547 -1453 1254 -1872 2162 -341 740 -505 1555 -464 2317 26 504 97 886
250 1343 103 309 117 343 272 665 97 203 298 528 452 730 243 320 543 620 858
858 760 574 1615 913 2575 1022 341 38 699 40 1059 4z m4221 -2964 c62 -135
185 -530 239 -767 l22 -98 -35 0 c-68 0 -338 31 -447 51 -211 39 -404 103
-600 198 -103 51 -178 103 -164 114 37 30 463 296 644 402 83 49 182 108 220
131 39 24 74 43 78 43 5 1 24 -33 43 -74z"/>
</g>
</svg>
