<?xml version="1.0" standalone="no"?>
<!DOCTYPE svg PUBLIC "-//W3C//DTD SVG 20010904//EN"
 "http://www.w3.org/TR/2001/REC-SVG-20010904/DTD/svg10.dtd">
<svg version="1.0" xmlns="http://www.w3.org/2000/svg"
 width="1080.000000pt" height="1080.000000pt" viewBox="0 0 1080.000000 1080.000000"
 preserveAspectRatio="xMidYMid meet">

<g transform="translate(0.000000,1080.000000) scale(0.100000,-0.100000)"
fill="#000000" stroke="none">
<path d="M6805 7202 c-16 -53 -58 -153 -92 -222 -148 -297 -389 -536 -688
-684 -71 -36 -139 -67 -150 -70 -14 -4 -33 6 -60 30 -210 187 -504 275 -762
230 -352 -61 -602 -275 -708 -606 -35 -109 -46 -322 -22 -435 47 -220 168
-412 347 -547 129 -98 309 -163 479 -174 386 -25 769 230 897 597 71 203 72
381 3 591 -29 89 -29 94 -12 106 331 237 522 441 652 698 56 111 78 172 112
302 25 97 50 282 38 282 -2 0 -17 -44 -34 -98z m-1467 -898 c91 -18 203 -68
255 -114 30 -26 37 -39 37 -69 0 -118 -266 -369 -471 -445 -148 -55 -324 -58
-473 -6 -31 10 -56 16 -56 13 0 -3 23 -32 51 -64 50 -58 51 -59 39 -96 -7 -21
-23 -55 -36 -75 -17 -27 -20 -38 -11 -38 19 0 87 51 119 89 29 33 49 39 67 17
13 -16 2 -85 -28 -172 -12 -32 -19 -59 -17 -61 8 -9 100 94 128 144 34 61 41
67 67 58 16 -5 20 -23 31 -123 6 -64 12 -126 14 -137 4 -47 59 95 90 238 11
48 42 35 75 -33 36 -72 114 -195 131 -205 14 -9 8 69 -16 195 -17 94 -17 99 1
106 9 4 29 -8 51 -30 44 -44 162 -118 233 -146 63 -25 65 -29 -39 94 -84 100
-109 141 -94 156 9 9 20 8 42 -4 53 -27 193 -56 272 -56 l75 1 -51 22 c-71 31
-204 118 -204 134 0 10 22 13 90 13 63 0 107 6 145 19 29 10 56 16 59 13 12
-12 5 -220 -9 -282 -50 -214 -224 -419 -425 -501 -185 -75 -353 -77 -540 -8
-280 104 -482 423 -456 719 9 100 23 151 61 237 79 173 207 294 385 362 134
52 269 64 408 35z m540 -431 c24 -64 32 -97 25 -104 -18 -17 -173 27 -173 49
0 7 119 81 131 82 4 0 11 -12 17 -27z"/>
<path d="M3988 6292 c-17 -3 -15 3 -170 -377 -204 -498 -249 -609 -296 -732
-26 -68 -50 -123 -53 -123 -5 0 -319 772 -439 1080 -59 151 -58 150 -133 150
-66 0 -87 -11 -87 -43 0 -17 168 -442 468 -1186 39 -96 77 -178 84 -182 7 -5
55 -9 105 -9 91 0 93 0 107 28 13 26 115 271 278 672 44 107 97 236 118 285
110 259 151 370 148 399 -3 30 -5 31 -59 36 -30 3 -63 4 -71 2z"/>
<path d="M1768 6279 c-17 -9 -18 -53 -18 -698 0 -589 2 -690 14 -701 11 -8
124 -12 431 -13 475 -2 445 -8 445 86 0 93 27 87 -366 87 l-344 0 2 233 3 232
300 5 300 5 0 80 0 80 -303 3 -302 2 2 218 3 217 335 3 c184 1 341 4 348 7 16
6 17 136 0 153 -16 16 -824 17 -850 1z"/>
<path d="M6460 6271 c-6 -13 -10 -251 -10 -694 1 -560 3 -677 14 -693 14 -18
34 -19 381 -22 432 -3 415 -7 415 86 0 32 -5 63 -12 70 -9 9 -93 12 -315 12
l-303 0 0 614 c0 338 -3 621 -6 630 -5 13 -22 16 -80 16 -62 0 -75 -3 -84 -19z"/>
<path d="M7135 6270 c-8 -26 -6 -31 146 -430 242 -636 347 -907 363 -938 l17
-32 89 0 c106 0 89 -20 178 206 33 82 114 284 182 449 250 614 289 713 283
734 -3 12 -8 22 -12 22 -20 4 -118 6 -128 2 -6 -2 -46 -93 -88 -201 -43 -108
-113 -282 -155 -387 -43 -104 -110 -269 -148 -365 -93 -232 -102 -253 -108
-248 -11 12 -324 824 -405 1053 -28 77 -56 143 -62 147 -7 4 -42 8 -79 8 -58
0 -67 -3 -73 -20z"/>
<path d="M8592 6278 c-17 -17 -17 -1379 0 -1396 17 -17 819 -17 836 0 15 15
16 112 2 139 -10 18 -25 19 -340 19 l-330 0 0 235 0 235 283 0 c207 0 286 3
295 12 15 15 16 112 2 139 -10 18 -24 19 -295 19 l-285 0 0 220 0 220 318 0
c234 0 321 3 330 12 16 16 16 130 0 146 -9 9 -113 12 -408 12 -295 0 -399 -3
-408 -12z"/>
<path d="M4137 4393 c-4 -3 -7 -132 -7 -285 l0 -278 190 0 190 0 0 35 0 34
-147 3 -148 3 -3 248 -2 247 -34 0 c-18 0 -36 -3 -39 -7z"/>
<path d="M4978 4351 c-102 -234 -131 -304 -199 -474 l-19 -48 41 3 c40 3 41 4
68 68 l27 65 135 3 c101 2 139 -1 146 -10 5 -7 20 -39 33 -70 l22 -58 44 0 44
0 -20 43 c-11 23 -64 148 -119 277 l-99 235 -42 6 -42 6 -20 -46z m110 -176
c23 -55 42 -106 44 -113 2 -11 -18 -14 -94 -14 -54 1 -100 1 -102 1 -3 1 14
47 38 104 23 56 46 111 50 121 9 27 16 16 64 -99z"/>
<path d="M5670 4379 c-53 -31 -73 -65 -78 -131 -4 -57 -4 -60 35 -96 28 -27
62 -44 126 -65 48 -16 99 -39 114 -51 36 -31 36 -78 -1 -114 -24 -24 -34 -27
-99 -27 -62 0 -77 4 -112 28 l-40 28 -23 -28 -22 -28 25 -22 c59 -52 207 -67
285 -30 76 37 114 151 72 219 -25 41 -71 67 -179 102 -111 37 -138 76 -90 132
35 40 114 45 182 10 50 -26 50 -26 70 -6 26 26 14 47 -45 78 -60 30 -169 31
-220 1z"/>
<path d="M6688 4271 l-3 -126 -160 0 -160 0 -3 123 -3 122 -34 0 -35 0 0 -280
0 -280 35 0 35 0 0 120 0 120 165 0 165 0 0 -120 0 -120 35 0 35 0 0 283 0
284 -35 0 -34 0 -3 -126z"/>
</g>
</svg>
